# xmcd
#
# Track frame offsets:
#   150
#   15164
#   29594
#   40447
#   54201
#   67336
#   80291
#   94270
#   104656
#   116059
#
# Disc length: 1752 seconds
#
# Revision: 0
# Processed by: cddbd v1.4PL0 Copyright (c) Steve Scherf et al.
# Submitted via: uFREEDB 1.6.0
#
DISCID=8306d60a
DTITLE=Martin, Dean - Dino
DYEAR=1972
DGENRE=Vocal
TTITLE0=What's Happening
TTITLE1=Small Exception Of Me
TTITLE2=Just The Other Side Of Nowhere
TTITLE3=Blue Memories
TTITLE4=Guess Who
TTITLE5=Party Dolls And Wine
TTITLE6=I Don't Know What I'm Doing
TTITLE7=I Can Give You What You Want Now
TTITLE8=Right Kind Of Woman
TTITLE9=Kiss The World Goodbye
EXTD=
EXTT0=
EXTT1=
EXTT2=
EXTT3=
EXTT4=
EXTT5=
EXTT6=
EXTT7=
EXTT8=
EXTT9=
PLAYORDER=
